<svg width="162" height="32" viewBox="0 0 162 32" fill="none" xmlns="http://www.w3.org/2000/svg">
<g clip-path="url(#clip0_1_2)">
<rect width="162" height="32" rx="4" fill="#1374EF"/>
<path d="M0 4C0 1.79086 1.79086 0 4 0H39V32H4C1.79086 32 0 30.2091 0 28V4Z" fill="#0060DA"/>
<path d="M50.0994 21H47.0387V11.5455H50.1964C51.1228 11.5455 51.9183 11.7347 52.5831 12.1133C53.2479 12.4888 53.7572 13.0289 54.1112 13.7337C54.4682 14.4354 54.6467 15.2771 54.6467 16.2589C54.6467 17.2437 54.4666 18.0901 54.1065 18.7979C53.7495 19.5058 53.2325 20.0505 52.5554 20.4322C51.8783 20.8107 51.0597 21 50.0994 21ZM48.4652 19.7536H50.021C50.7411 19.7536 51.3397 19.6181 51.8168 19.3473C52.2938 19.0734 52.6508 18.6779 52.8878 18.1609C53.1248 17.6407 53.2433 17.0067 53.2433 16.2589C53.2433 15.5172 53.1248 14.8878 52.8878 14.3707C52.6539 13.8537 52.3046 13.4613 51.8398 13.1935C51.3751 12.9258 50.7981 12.7919 50.1087 12.7919H48.4652V19.7536ZM57.6901 16.7898V21H56.3097V11.5455H57.6716V15.0632H57.7593C57.9255 14.6816 58.1794 14.3784 58.521 14.1538C58.8627 13.9291 59.3089 13.8168 59.8598 13.8168C60.3461 13.8168 60.7708 13.9168 61.134 14.1168C61.5002 14.3169 61.7834 14.6154 61.9834 15.0124C62.1865 15.4064 62.2881 15.8988 62.2881 16.4897V21H60.9078V16.6559C60.9078 16.1358 60.7739 15.7326 60.5061 15.4464C60.2384 15.1571 59.866 15.0124 59.3889 15.0124C59.0627 15.0124 58.7703 15.0817 58.5118 15.2202C58.2564 15.3587 58.0548 15.5618 57.907 15.8295C57.7624 16.0942 57.6901 16.4143 57.6901 16.7898ZM66.1936 21.157C65.7443 21.157 65.338 21.0739 64.9749 20.9077C64.6117 20.7384 64.324 20.4937 64.1116 20.1737C63.9023 19.8536 63.7977 19.4612 63.7977 18.9964C63.7977 18.5964 63.8746 18.267 64.0285 18.0085C64.1824 17.75 64.3901 17.5453 64.6517 17.3945C64.9133 17.2437 65.2057 17.1299 65.5289 17.0529C65.852 16.976 66.1813 16.9175 66.5168 16.8775C66.9415 16.8282 67.2862 16.7882 67.5509 16.7575C67.8155 16.7236 68.0079 16.6697 68.1279 16.5959C68.248 16.522 68.308 16.402 68.308 16.2358V16.2035C68.308 15.8003 68.1941 15.4879 67.9664 15.2663C67.7417 15.0447 67.4062 14.9339 66.96 14.9339C66.4952 14.9339 66.129 15.037 65.8612 15.2433C65.5966 15.4464 65.4134 15.6726 65.3119 15.9219L64.0146 15.6264C64.1685 15.1955 64.3932 14.8478 64.6887 14.5831C64.9872 14.3153 65.3303 14.1214 65.7181 14.0014C66.1059 13.8783 66.5137 13.8168 66.9415 13.8168C67.2246 13.8168 67.5247 13.8506 67.8417 13.9183C68.1618 13.983 68.4603 14.103 68.7373 14.2784C69.0174 14.4538 69.2467 14.7047 69.4252 15.0309C69.6037 15.354 69.6929 15.7741 69.6929 16.2912V21H68.3449V20.0305H68.2895C68.2003 20.209 68.0664 20.3845 67.8879 20.5568C67.7094 20.7292 67.4801 20.8723 67.2 20.9862C66.92 21.1 66.5845 21.157 66.1936 21.157ZM66.4937 20.049C66.8753 20.049 67.2016 19.9736 67.4724 19.8228C67.7463 19.672 67.954 19.475 68.0956 19.2319C68.2403 18.9857 68.3126 18.7225 68.3126 18.4425V17.5284C68.2633 17.5777 68.1679 17.6238 68.0264 17.6669C67.8879 17.7069 67.7294 17.7423 67.5509 17.7731C67.3724 17.8008 67.1985 17.8269 67.0292 17.8516C66.8599 17.8731 66.7184 17.8916 66.6045 17.907C66.3367 17.9408 66.0921 17.9978 65.8705 18.0778C65.652 18.1578 65.4765 18.2732 65.3442 18.424C65.2149 18.5717 65.1503 18.7687 65.1503 19.0149C65.1503 19.3565 65.2765 19.6151 65.5289 19.7905C65.7812 19.9628 66.1028 20.049 66.4937 20.049ZM72.9118 16.7898V21H71.5314V13.9091H72.8564V15.0632H72.9441C73.1072 14.6877 73.3626 14.3861 73.7104 14.1584C74.0613 13.9306 74.5029 13.8168 75.0353 13.8168C75.5185 13.8168 75.9417 13.9183 76.3049 14.1214C76.668 14.3215 76.9496 14.62 77.1497 15.017C77.3497 15.4141 77.4498 15.9049 77.4498 16.4897V21H76.0694V16.6559C76.0694 16.1419 75.9355 15.7403 75.6678 15.451C75.4 15.1586 75.0323 15.0124 74.5645 15.0124C74.2444 15.0124 73.9597 15.0817 73.7104 15.2202C73.4642 15.3587 73.2688 15.5618 73.1241 15.8295C72.9825 16.0942 72.9118 16.4143 72.9118 16.7898ZM83.7928 18.0593V13.9091H85.1777V21H83.8205V19.772H83.7466C83.5835 20.1506 83.3219 20.466 82.9618 20.7184C82.6048 20.9677 82.1601 21.0923 81.6277 21.0923C81.1722 21.0923 80.769 20.9923 80.4181 20.7923C80.0704 20.5891 79.7965 20.2891 79.5964 19.892C79.3994 19.495 79.301 19.0041 79.301 18.4194V13.9091H80.6813V18.2532C80.6813 18.7364 80.8152 19.1211 81.0829 19.4073C81.3507 19.6935 81.6984 19.8366 82.1262 19.8366C82.3848 19.8366 82.6417 19.772 82.8972 19.6428C83.1557 19.5135 83.3696 19.3181 83.5389 19.0565C83.7112 18.7949 83.7959 18.4625 83.7928 18.0593ZM92.346 15.6403L91.0949 15.8619C91.0426 15.7018 90.9595 15.5495 90.8456 15.4048C90.7348 15.2602 90.584 15.1417 90.3932 15.0494C90.2024 14.957 89.9639 14.9109 89.6776 14.9109C89.2868 14.9109 88.9606 14.9986 88.699 15.174C88.4374 15.3464 88.3066 15.5695 88.3066 15.8434C88.3066 16.0804 88.3943 16.2712 88.5697 16.4158C88.7451 16.5605 89.0283 16.679 89.4191 16.7713L90.5455 17.0298C91.198 17.1806 91.6843 17.413 92.0044 17.7269C92.3244 18.0408 92.4845 18.4486 92.4845 18.9503C92.4845 19.375 92.3614 19.7536 92.1151 20.0859C91.872 20.4152 91.5319 20.6738 91.0949 20.8615C90.661 21.0492 90.1578 21.1431 89.5853 21.1431C88.7913 21.1431 88.1434 20.9738 87.6418 20.6353C87.1401 20.2937 86.8324 19.8089 86.7185 19.1811L88.0526 18.978C88.1357 19.3258 88.3066 19.5889 88.5651 19.7674C88.8236 19.9428 89.1606 20.0305 89.5761 20.0305C90.0285 20.0305 90.3901 19.9367 90.661 19.7489C90.9318 19.5581 91.0672 19.3258 91.0672 19.0518C91.0672 18.8303 90.9841 18.6441 90.8179 18.4933C90.6548 18.3424 90.404 18.2286 90.0654 18.1516L88.8651 17.8885C88.2035 17.7377 87.7141 17.4976 87.3971 17.1683C87.0832 16.839 86.9262 16.422 86.9262 15.9173C86.9262 15.4987 87.0432 15.1325 87.2771 14.8185C87.511 14.5046 87.8341 14.2599 88.2465 14.0845C88.6589 13.906 89.1314 13.8168 89.6638 13.8168C90.4301 13.8168 91.0334 13.983 91.4735 14.3153C91.9136 14.6446 92.2044 15.0863 92.346 15.6403ZM95.3825 16.7898V21H94.0021V11.5455H95.364V15.0632H95.4517C95.6179 14.6816 95.8718 14.3784 96.2134 14.1538C96.555 13.9291 97.0013 13.8168 97.5522 13.8168C98.0385 13.8168 98.4632 13.9168 98.8263 14.1168C99.1926 14.3169 99.4757 14.6154 99.6758 15.0124C99.8789 15.4064 99.9805 15.8988 99.9805 16.4897V21H98.6001V16.6559C98.6001 16.1358 98.4663 15.7326 98.1985 15.4464C97.9308 15.1571 97.5584 15.0124 97.0813 15.0124C96.7551 15.0124 96.4627 15.0817 96.2042 15.2202C95.9487 15.3587 95.7472 15.5618 95.5994 15.8295C95.4548 16.0942 95.3825 16.4143 95.3825 16.7898ZM110.53 14.0291C110.481 13.5921 110.278 13.2536 109.921 13.0135C109.564 12.7704 109.115 12.6488 108.573 12.6488C108.185 12.6488 107.85 12.7103 107.566 12.8335C107.283 12.9535 107.063 13.1197 106.906 13.332C106.752 13.5413 106.676 13.7798 106.676 14.0476C106.676 14.2723 106.728 14.4661 106.832 14.6293C106.94 14.7924 107.08 14.9293 107.253 15.0401C107.428 15.1478 107.616 15.2386 107.816 15.3125C108.016 15.3833 108.208 15.4418 108.393 15.4879L109.316 15.728C109.618 15.8018 109.927 15.9019 110.244 16.0281C110.561 16.1542 110.855 16.3204 111.126 16.5266C111.397 16.7328 111.615 16.9883 111.781 17.293C111.951 17.5977 112.035 17.9624 112.035 18.3871C112.035 18.9226 111.897 19.3981 111.62 19.8136C111.346 20.229 110.947 20.5568 110.424 20.7969C109.904 21.0369 109.275 21.157 108.536 21.157C107.828 21.157 107.216 21.0446 106.699 20.82C106.182 20.5953 105.777 20.2768 105.484 19.8643C105.192 19.4489 105.031 18.9564 105 18.3871H106.431C106.459 18.7287 106.569 19.0134 106.763 19.2411C106.96 19.4658 107.211 19.6335 107.516 19.7443C107.823 19.852 108.16 19.9059 108.527 19.9059C108.93 19.9059 109.288 19.8428 109.602 19.7166C109.919 19.5874 110.169 19.4089 110.35 19.1811C110.532 18.9503 110.623 18.681 110.623 18.3732C110.623 18.0932 110.543 17.8639 110.383 17.6854C110.226 17.5069 110.012 17.3591 109.741 17.2422C109.473 17.1252 109.17 17.0221 108.831 16.9329L107.714 16.6282C106.957 16.422 106.357 16.1188 105.914 15.7188C105.474 15.3187 105.254 14.7893 105.254 14.1307C105.254 13.5859 105.401 13.1104 105.697 12.7042C105.992 12.2979 106.392 11.9825 106.897 11.7578C107.402 11.5301 107.971 11.4162 108.605 11.4162C109.245 11.4162 109.81 11.5285 110.299 11.7532C110.792 11.9779 111.18 12.2872 111.463 12.6811C111.746 13.072 111.894 13.5213 111.906 14.0291H110.53ZM118.121 18.0593V13.9091H119.506V21H118.149V19.772H118.075C117.912 20.1506 117.65 20.466 117.29 20.7184C116.933 20.9677 116.488 21.0923 115.956 21.0923C115.5 21.0923 115.097 20.9923 114.746 20.7923C114.398 20.5891 114.125 20.2891 113.925 19.892C113.728 19.495 113.629 19.0041 113.629 18.4194V13.9091H115.009V18.2532C115.009 18.7364 115.143 19.1211 115.411 19.4073C115.679 19.6935 116.027 19.8366 116.454 19.8366C116.713 19.8366 116.97 19.772 117.225 19.6428C117.484 19.5135 117.698 19.3181 117.867 19.0565C118.039 18.7949 118.124 18.4625 118.121 18.0593ZM127.427 13.9091L124.855 21H123.378L120.802 13.9091H122.284L124.08 19.3658H124.153L125.945 13.9091H127.427ZM130.584 21.157C130.135 21.157 129.729 21.0739 129.366 20.9077C129.002 20.7384 128.715 20.4937 128.502 20.1737C128.293 19.8536 128.188 19.4612 128.188 18.9964C128.188 18.5964 128.265 18.267 128.419 18.0085C128.573 17.75 128.781 17.5453 129.042 17.3945C129.304 17.2437 129.596 17.1299 129.919 17.0529C130.243 16.976 130.572 16.9175 130.907 16.8775C131.332 16.8282 131.677 16.7882 131.941 16.7575C132.206 16.7236 132.399 16.6697 132.519 16.5959C132.639 16.522 132.699 16.402 132.699 16.2358V16.2035C132.699 15.8003 132.585 15.4879 132.357 15.2663C132.132 15.0447 131.797 14.9339 131.351 14.9339C130.886 14.9339 130.52 15.037 130.252 15.2433C129.987 15.4464 129.804 15.6726 129.703 15.9219L128.405 15.6264C128.559 15.1955 128.784 14.8478 129.079 14.5831C129.378 14.3153 129.721 14.1214 130.109 14.0014C130.497 13.8783 130.904 13.8168 131.332 13.8168C131.615 13.8168 131.915 13.8506 132.232 13.9183C132.552 13.983 132.851 14.103 133.128 14.2784C133.408 14.4538 133.637 14.7047 133.816 15.0309C133.994 15.354 134.084 15.7741 134.084 16.2912V21H132.736V20.0305H132.68C132.591 20.209 132.457 20.3845 132.278 20.5568C132.1 20.7292 131.871 20.8723 131.591 20.9862C131.311 21.1 130.975 21.157 130.584 21.157ZM130.884 20.049C131.266 20.049 131.592 19.9736 131.863 19.8228C132.137 19.672 132.345 19.475 132.486 19.2319C132.631 18.9857 132.703 18.7225 132.703 18.4425V17.5284C132.654 17.5777 132.559 17.6238 132.417 17.6669C132.278 17.7069 132.12 17.7423 131.941 17.7731C131.763 17.8008 131.589 17.8269 131.42 17.8516C131.251 17.8731 131.109 17.8916 130.995 17.907C130.727 17.9408 130.483 17.9978 130.261 18.0778C130.043 18.1578 129.867 18.2732 129.735 18.424C129.606 18.5717 129.541 18.7687 129.541 19.0149C129.541 19.3565 129.667 19.6151 129.919 19.7905C130.172 19.9628 130.493 20.049 130.884 20.049ZM135.922 21V13.9091H137.256V15.0355H137.33C137.459 14.6539 137.687 14.3538 138.013 14.1353C138.343 13.9137 138.715 13.8029 139.131 13.8029C139.217 13.8029 139.318 13.806 139.435 13.8121C139.555 13.8183 139.649 13.826 139.717 13.8352V15.1555C139.661 15.1402 139.563 15.1232 139.421 15.1048C139.28 15.0832 139.138 15.0724 138.997 15.0724C138.67 15.0724 138.38 15.1417 138.124 15.2802C137.872 15.4156 137.672 15.6049 137.524 15.848C137.376 16.0881 137.302 16.362 137.302 16.6697V21H135.922ZM142.292 16.7898V21H140.911V13.9091H142.236V15.0632H142.324C142.487 14.6877 142.743 14.3861 143.09 14.1584C143.441 13.9306 143.883 13.8168 144.415 13.8168C144.898 13.8168 145.322 13.9183 145.685 14.1214C146.048 14.3215 146.33 14.62 146.53 15.017C146.73 15.4141 146.83 15.9049 146.83 16.4897V21H145.449V16.6559C145.449 16.1419 145.315 15.7403 145.048 15.451C144.78 15.1586 144.412 15.0124 143.944 15.0124C143.624 15.0124 143.34 15.0817 143.09 15.2202C142.844 15.3587 142.649 15.5618 142.504 15.8295C142.362 16.0942 142.292 16.4143 142.292 16.7898ZM150.744 21.157C150.295 21.157 149.889 21.0739 149.526 20.9077C149.162 20.7384 148.875 20.4937 148.662 20.1737C148.453 19.8536 148.348 19.4612 148.348 18.9964C148.348 18.5964 148.425 18.267 148.579 18.0085C148.733 17.75 148.941 17.5453 149.203 17.3945C149.464 17.2437 149.756 17.1299 150.08 17.0529C150.403 16.976 150.732 16.9175 151.068 16.8775C151.492 16.8282 151.837 16.7882 152.102 16.7575C152.366 16.7236 152.559 16.6697 152.679 16.5959C152.799 16.522 152.859 16.402 152.859 16.2358V16.2035C152.859 15.8003 152.745 15.4879 152.517 15.2663C152.292 15.0447 151.957 14.9339 151.511 14.9339C151.046 14.9339 150.68 15.037 150.412 15.2433C150.147 15.4464 149.964 15.6726 149.863 15.9219L148.565 15.6264C148.719 15.1955 148.944 14.8478 149.239 14.5831C149.538 14.3153 149.881 14.1214 150.269 14.0014C150.657 13.8783 151.064 13.8168 151.492 13.8168C151.775 13.8168 152.075 13.8506 152.392 13.9183C152.713 13.983 153.011 14.103 153.288 14.2784C153.568 14.4538 153.797 14.7047 153.976 15.0309C154.154 15.354 154.244 15.7741 154.244 16.2912V21H152.896V20.0305H152.84C152.751 20.209 152.617 20.3845 152.439 20.5568C152.26 20.7292 152.031 20.8723 151.751 20.9862C151.471 21.1 151.135 21.157 150.744 21.157ZM151.044 20.049C151.426 20.049 151.752 19.9736 152.023 19.8228C152.297 19.672 152.505 19.475 152.646 19.2319C152.791 18.9857 152.863 18.7225 152.863 18.4425V17.5284C152.814 17.5777 152.719 17.6238 152.577 17.6669C152.439 17.7069 152.28 17.7423 152.102 17.7731C151.923 17.8008 151.749 17.8269 151.58 17.8516C151.411 17.8731 151.269 17.8916 151.155 17.907C150.888 17.9408 150.643 17.9978 150.421 18.0778C150.203 18.1578 150.027 18.2732 149.895 18.424C149.766 18.5717 149.701 18.7687 149.701 19.0149C149.701 19.3565 149.827 19.6151 150.08 19.7905C150.332 19.9628 150.654 20.049 151.044 20.049Z" fill="white"/>
<path d="M15.6645 28.3134C9.47558 30.1701 9.47558 25.2189 7 24.6M24.3291 32.0268V27.2365C24.3755 26.6463 24.2958 26.053 24.0952 25.4959C23.8945 24.9389 23.5777 24.431 23.1656 24.0059C27.0522 23.5727 31.1369 22.0997 31.1369 15.3414C31.1366 13.6132 30.4719 11.9513 29.2803 10.6996C29.8445 9.18768 29.8046 7.51647 29.1689 6.03316C29.1689 6.03316 27.7083 5.59994 24.3291 7.8651C21.4921 7.09621 18.5016 7.09621 15.6645 7.8651C12.2854 5.59994 10.8248 6.03316 10.8248 6.03316C10.189 7.51647 10.1491 9.18768 10.7134 10.6996C9.51287 11.9606 8.84743 13.6375 8.85669 15.3785C8.85669 22.0873 12.9414 23.5603 16.8281 24.043C16.4208 24.4639 16.1068 24.9657 15.9063 25.5159C15.7058 26.0661 15.6235 26.6524 15.6645 27.2365V32.0268" stroke="white" stroke-width="1.8" stroke-linecap="round" stroke-linejoin="round"/>
</g>
<defs>
<clipPath id="clip0_1_2">
<rect width="162" height="32" fill="white"/>
</clipPath>
</defs>
</svg>
